<?xml version="1.0" encoding="iso-8859-1"?>
<!-- Generator: Adobe Illustrator 19.0.0, SVG Export Plug-In . SVG Version: 6.00 Build 0)  -->
<svg version="1.1" id="Capa_1" xmlns="http://www.w3.org/2000/svg" xmlns:xlink="http://www.w3.org/1999/xlink" x="0px" y="0px"
	 viewBox="0 0 426.667 426.667" style="enable-background:new 0 0 426.667 426.667;" xml:space="preserve">
<rect x="218.146" y="163.157" style="fill:#1C75A1;" width="146.091" height="250.462"/>
<rect x="310.519" y="181.333" style="fill:#D5D6DB;" width="35.017" height="31.569"/>
<polygon style="fill:#EBF0F3;" points="310.502,212.906 310.502,181.337 345.52,181.337 "/>
<rect x="310.519" y="235.051" style="fill:#D5D6DB;" width="35.017" height="31.569"/>
<polygon style="fill:#EBF0F3;" points="310.502,266.622 310.502,235.053 345.52,235.053 "/>
<rect x="310.519" y="288.768" style="fill:#D5D6DB;" width="35.017" height="31.569"/>
<polygon style="fill:#EBF0F3;" points="310.502,320.338 310.502,288.769 345.52,288.769 "/>
<rect x="310.519" y="342.485" style="fill:#D5D6DB;" width="35.017" height="31.569"/>
<polygon style="fill:#EBF0F3;" points="310.502,374.055 310.502,342.486 345.52,342.486 "/>
<rect x="252.151" y="181.333" style="fill:#D5D6DB;" width="35.017" height="31.569"/>
<polygon style="fill:#EBF0F3;" points="252.156,212.906 252.156,181.337 287.174,181.337 "/>
<rect x="252.151" y="235.051" style="fill:#D5D6DB;" width="35.017" height="31.569"/>
<polygon style="fill:#EBF0F3;" points="252.156,266.622 252.156,235.053 287.174,235.053 "/>
<rect x="252.151" y="288.768" style="fill:#D5D6DB;" width="35.017" height="31.569"/>
<polygon style="fill:#EBF0F3;" points="252.156,320.338 252.156,288.769 287.174,288.769 "/>
<rect x="252.151" y="342.485" style="fill:#D5D6DB;" width="35.017" height="31.569"/>
<polygon style="fill:#EBF0F3;" points="252.156,374.055 252.156,342.486 287.174,342.486 "/>
<rect x="103.074" style="fill:#27A2DB;" width="146.091" height="413.611"/>
<rect x="46.549" y="413.611" style="fill:#DC8744;" width="333.568" height="13.056"/>
<rect x="161.724" y="303.915" style="fill:#D5D6DB;" width="59.281" height="109.713"/>
<rect x="121.954" y="134.101" style="fill:#F6C358;" width="108.297" height="18.889"/>
<polygon style="fill:#FCD462;" points="121.953,152.986 121.953,134.098 230.249,134.098 "/>
<rect x="121.954" y="103.637" style="fill:#F6C358;" width="108.297" height="18.889"/>
<polygon style="fill:#FCD462;" points="121.953,122.543 121.953,103.654 230.249,103.654 "/>
<rect x="121.954" y="73.216" style="fill:#F6C358;" width="108.297" height="18.889"/>
<polygon style="fill:#FCD462;" points="121.953,92.1 121.953,73.211 230.249,73.211 "/>
<rect x="121.954" y="42.752" style="fill:#F6C358;" width="108.297" height="18.889"/>
<polygon style="fill:#FCD462;" points="121.953,61.656 121.953,42.767 230.249,42.767 "/>
<rect x="121.954" y="12.322" style="fill:#F6C358;" width="108.297" height="18.889"/>
<polygon style="fill:#FCD462;" points="121.953,31.213 121.953,12.324 230.249,12.324 "/>
<rect x="121.954" y="166.208" style="fill:#F6C358;" width="108.297" height="18.889"/>
<polygon style="fill:#FCD462;" points="121.953,185.098 121.953,166.209 230.249,166.209 "/>
<rect x="121.954" y="198.315" style="fill:#F6C358;" width="108.297" height="18.889"/>
<polygon style="fill:#FCD462;" points="121.953,217.209 121.953,198.32 230.249,198.32 "/>
<rect x="121.954" y="230.443" style="fill:#F6C358;" width="108.297" height="18.889"/>
<polygon style="fill:#FCD462;" points="121.953,249.32 121.953,230.431 230.249,230.431 "/>
<rect x="121.954" y="262.528" style="fill:#F6C358;" width="108.297" height="18.889"/>
<polygon style="fill:#FCD462;" points="121.953,281.431 121.953,262.543 230.249,262.543 "/>
<rect x="65.425" y="244.992" style="fill:#1C75A1;" width="89.6" height="168.623"/>
<rect x="80.098" y="260.651" style="fill:#D5D6DB;" width="21.79" height="18.889"/>
<polygon style="fill:#EBF0F3;" points="80.098,279.521 80.098,260.632 101.889,260.632 "/>
<rect x="80.098" y="292.096" style="fill:#D5D6DB;" width="21.79" height="18.889"/>
<polygon style="fill:#EBF0F3;" points="80.098,311.002 80.098,292.113 101.889,292.113 "/>
<rect x="80.098" y="323.584" style="fill:#D5D6DB;" width="21.79" height="18.889"/>
<polygon style="fill:#EBF0F3;" points="80.098,342.484 80.098,323.595 101.889,323.595 "/>
<rect x="80.098" y="355.072" style="fill:#D5D6DB;" width="21.79" height="18.889"/>
<polygon style="fill:#EBF0F3;" points="80.098,373.965 80.098,355.077 101.889,355.077 "/>
<rect x="118.562" y="260.651" style="fill:#D5D6DB;" width="21.79" height="18.889"/>
<polygon style="fill:#EBF0F3;" points="118.563,279.521 118.563,260.632 140.354,260.632 "/>
<rect x="118.562" y="292.096" style="fill:#D5D6DB;" width="21.79" height="18.889"/>
<polygon style="fill:#EBF0F3;" points="118.563,311.002 118.563,292.113 140.354,292.113 "/>
<rect x="118.562" y="323.584" style="fill:#D5D6DB;" width="21.79" height="18.889"/>
<polygon style="fill:#EBF0F3;" points="118.563,342.484 118.563,323.595 140.354,323.595 "/>
<rect x="118.562" y="355.072" style="fill:#D5D6DB;" width="21.79" height="18.889"/>
<polygon style="fill:#EBF0F3;" points="118.563,373.965 118.563,355.077 140.354,355.077 "/>
<g>
</g>
<g>
</g>
<g>
</g>
<g>
</g>
<g>
</g>
<g>
</g>
<g>
</g>
<g>
</g>
<g>
</g>
<g>
</g>
<g>
</g>
<g>
</g>
<g>
</g>
<g>
</g>
<g>
</g>
</svg>
